<svg width="42" height="42" viewBox="0 0 42 42" fill="none" xmlns="http://www.w3.org/2000/svg">
<g clip-path="url(#clip0_4_30)">
<path d="M12.5354 23.898C13.5884 25.3248 14.7984 26.5866 16.3616 27.4793C18.1318 28.4911 20.0376 28.7962 22.0476 28.7032C22.9867 28.6582 23.2691 28.4133 23.3124 27.4776C23.3415 26.8366 23.4156 26.1972 23.7312 25.6212C24.0414 25.0562 24.5119 24.9493 25.0549 25.3008C25.3252 25.4784 25.5528 25.7006 25.7683 25.9385C26.2974 26.5159 26.8095 27.114 27.3575 27.6724C28.0466 28.374 28.8638 28.7874 29.8891 28.7032L33.8618 28.7049C34.5012 28.6616 34.8337 27.8778 34.4666 27.162C34.2082 26.6624 33.8689 26.2179 33.5103 25.7866C32.6985 24.8113 31.7419 23.9802 30.8373 23.098C30.0221 22.302 29.9703 21.8399 30.6252 20.9215C31.342 19.9182 32.1106 18.9548 32.8328 17.9569C33.5066 17.0246 34.1981 16.0937 34.5509 14.9787C34.7768 14.267 34.5769 13.9534 33.85 13.8276C33.7241 13.807 33.5932 13.807 33.4657 13.807L29.1429 13.8015C28.6105 13.7931 28.3175 14.0258 28.1294 14.4977C27.8744 15.1357 27.6126 15.7733 27.3088 16.387C26.6231 17.783 25.8559 19.1324 24.7805 20.2734C24.5427 20.5247 24.2789 20.8437 23.8828 20.7128C23.3882 20.5318 23.2417 19.7152 23.2502 19.4395L23.2465 14.4497C23.1504 13.7383 22.9914 13.4193 22.2834 13.2809H17.7935C17.1958 13.2809 16.894 13.514 16.5734 13.8878C16.3907 14.1053 16.3335 14.2447 16.7131 14.3171C17.4573 14.4581 17.8798 14.9409 17.99 15.6874C18.1676 16.8819 18.1555 18.081 18.0523 19.2789C18.0229 19.6286 17.9626 19.9771 17.8243 20.3045C17.6075 20.8197 17.2556 20.9232 16.7956 20.6063C16.3805 20.3201 16.0876 19.9169 15.7994 19.5119C14.7223 17.9897 13.8641 16.3494 13.1625 14.6256C12.9609 14.1273 12.6112 13.8259 12.0838 13.8171C10.7875 13.7965 9.48991 13.7934 8.19196 13.8188C7.41291 13.8327 7.18018 14.2119 7.49917 14.9202C8.91079 18.0621 10.4827 21.116 12.5354 23.898Z" fill="black"/>
<path d="M0 0V42H42V0H0ZM39.4021 39.4021H2.59794V2.59794H39.4021V39.4021Z" fill="black"/>
</g>
<defs>
<clipPath id="clip0_4_30">
<rect width="42" height="42" fill="white"/>
</clipPath>
</defs>
</svg>
