<svg width="42" height="42" viewBox="0 0 42 42" fill="none" xmlns="http://www.w3.org/2000/svg">
<path d="M18.3843 24.4162L25.2153 20.5637L18.3843 16.7111V24.4162Z" fill="black"/>
<path d="M38.9709 0H3.02907C1.35608 0 0 1.3279 0 2.96613V38.1612C0 39.7995 1.35608 41.1274 3.02907 41.1274H38.9709C40.6439 41.1274 42 39.7995 42 38.1612V2.96613C42 1.3279 40.6439 0 38.9709 0V0ZM34.1218 20.5847C34.1218 20.5847 34.1218 24.7551 33.5815 26.7661C33.2787 27.8668 32.3924 28.7347 31.2683 29.031C29.2147 29.5603 21 29.5603 21 29.5603C21 29.5603 12.8068 29.5603 10.7317 29.0099C9.60759 28.7137 8.72127 27.8455 8.41846 26.7448C7.87788 24.7551 7.87788 20.5637 7.87788 20.5637C7.87788 20.5637 7.87788 16.3936 8.41846 14.3826C8.72095 13.2819 9.62906 12.3926 10.7317 12.0964C12.7853 11.5671 21 11.5671 21 11.5671C21 11.5671 29.2147 11.5671 31.2683 12.1174C32.3924 12.4136 33.2787 13.2819 33.5815 14.3826C34.1436 16.3936 34.1218 20.5847 34.1218 20.5847Z" fill="black"/>
</svg>
